<?xml version="1.0" encoding="UTF-8" standalone="no"?>
<!-- Created with Inkscape (http://www.inkscape.org/) -->

<svg
   width="88mm"
   height="88mm"
   viewBox="0 0 88 88"
   version="1.1"
   id="svg906"
   sodipodi:docname="logo_without_font.svg"
   inkscape:version="1.1 (c68e22c387, 2021-05-23)"
   xmlns:inkscape="http://www.inkscape.org/namespaces/inkscape"
   xmlns:sodipodi="http://sodipodi.sourceforge.net/DTD/sodipodi-0.dtd"
   xmlns="http://www.w3.org/2000/svg"
   xmlns:svg="http://www.w3.org/2000/svg">
  <sodipodi:namedview
     id="namedview908"
     pagecolor="#ffffff"
     bordercolor="#666666"
     borderopacity="1.0"
     inkscape:pageshadow="2"
     inkscape:pageopacity="0.0"
     inkscape:pagecheckerboard="0"
     inkscape:document-units="mm"
     showgrid="false"
     inkscape:zoom="2.6832492"
     inkscape:cx="291.25137"
     inkscape:cy="194.16758"
     inkscape:window-width="3100"
     inkscape:window-height="2126"
     inkscape:window-x="-11"
     inkscape:window-y="-11"
     inkscape:window-maximized="1"
     inkscape:current-layer="layer1"
     width="85mm" />
  <defs
     id="defs903" />
  <g
     inkscape:label="Laag 1"
     inkscape:groupmode="layer"
     id="layer1">
    <circle
       id="path13241"
       cx="44.175301"
       cy="44.310047"
       r="42.495853"
       style="fill:#000000;stroke-width:0.264583"
       inkscape:export-xdpi="96"
       inkscape:export-ydpi="96" />
    <circle
       id="path13241-3"
       cx="44.110458"
       cy="44.358707"
       r="41.124538"
       style="fill:#ffffff;stroke-width:0.256045"
       inkscape:export-xdpi="96"
       inkscape:export-ydpi="96" />
    <path
       id="flowRoot13260"
       style="font-style:normal;font-variant:normal;font-weight:bold;font-stretch:normal;font-size:53.3333px;line-height:1.25;font-family:'Segoe UI Symbol';-inkscape-font-specification:'Segoe UI Symbol Bold';letter-spacing:0px;word-spacing:0px;fill:#000000;fill-opacity:1;stroke:none;stroke-width:1.52975"
       d="M 166.25195 135.02734 L 166.25195 193.98828 L 172.94531 193.98828 L 172.94531 188.23242 L 173.10742 188.23242 C 175.93658 192.69206 180.11248 194.92188 185.63477 194.92188 C 191.5379 194.92187 196.18942 192.92457 199.58984 188.93164 C 202.99027 184.91278 204.69141 179.57173 204.69141 172.9082 C 204.69141 166.9188 203.16787 162.14786 200.12109 158.5957 C 197.10152 155.01762 192.9118 153.22852 187.55273 153.22852 C 181.21434 153.22852 176.39903 155.87277 173.10742 161.16211 L 172.94531 161.16211 L 172.94531 135.02734 L 166.25195 135.02734 z M 53.181641 135.76562 C 51.984691 135.76562 50.964399 136.16888 50.121094 136.97266 C 49.277788 137.7505 48.855469 138.73504 48.855469 139.92773 C 48.855469 141.12043 49.277788 142.10497 50.121094 142.88281 C 50.964399 143.66066 51.984691 144.05078 53.181641 144.05078 C 54.405793 144.05078 55.439898 143.64752 56.283203 142.84375 C 57.153712 142.03998 57.587891 141.06857 57.587891 139.92773 C 57.587891 138.73504 57.153712 137.7505 56.283203 136.97266 C 55.439898 136.16888 54.405793 135.76562 53.181641 135.76562 z M 273.20312 142.37695 L 266.50977 144.43945 L 266.50977 154.16211 L 259.32812 154.16211 L 259.32812 159.60742 L 266.50977 159.60742 L 266.50977 183.17578 C 266.50977 190.95422 270.16861 194.84375 277.48633 194.84375 C 280.07065 194.84375 282.15267 194.42931 283.73047 193.59961 L 283.73047 188.1543 C 282.50632 189.03585 281.05184 189.47656 279.36523 189.47656 C 277.16176 189.47656 275.58298 188.90646 274.63086 187.76562 C 273.67874 186.62479 273.20312 184.71943 273.20312 182.04883 L 273.20312 159.60742 L 283.73047 159.60742 L 283.73047 154.16211 L 273.20312 154.16211 L 273.20312 142.37695 z M 88.4375 153.22852 C 81.908685 153.22852 76.726304 155.10956 72.890625 158.86914 C 69.054946 162.62872 67.136719 167.85156 67.136719 174.54102 C 67.136719 180.68598 68.974026 185.62572 72.646484 189.35938 C 76.346146 193.0671 81.28186 194.92188 87.457031 194.92188 C 93.795422 194.92187 98.841634 193.01651 102.5957 189.20508 C 106.37698 185.36771 108.26758 180.27231 108.26758 173.91992 C 108.26758 167.43789 106.51314 162.36876 103.00391 158.71289 C 99.521872 155.05702 94.667078 153.22852 88.4375 153.22852 z M 139.52539 153.22852 C 133.54064 153.22852 128.97005 155.74338 125.81445 160.77344 L 125.65234 160.77344 L 125.65234 154.16211 L 118.95898 154.16211 L 118.95898 193.98828 L 125.65234 193.98828 L 125.65234 171.27539 C 125.65234 167.61952 126.73974 164.59828 128.91602 162.21289 C 131.11949 159.80157 133.89422 158.5957 137.24023 158.5957 C 143.71464 158.5957 146.95117 162.82282 146.95117 171.27539 L 146.95117 193.98828 L 153.64453 193.98828 L 153.64453 169.64062 C 153.64453 164.32536 152.43282 160.26899 150.01172 157.46875 C 147.59062 154.64258 144.09556 153.22852 139.52539 153.22852 z M 233.82617 153.22852 C 227.29736 153.22852 222.11498 155.10956 218.2793 158.86914 C 214.44362 162.62872 212.52539 167.85156 212.52539 174.54102 C 212.52539 180.68598 214.3627 185.62572 218.03516 189.35938 C 221.73482 193.0671 226.67053 194.92188 232.8457 194.92188 C 239.18409 194.92187 244.23031 193.01651 247.98438 189.20508 C 251.76565 185.36771 253.65625 180.27231 253.65625 173.91992 C 253.65625 167.43789 251.90182 162.36876 248.39258 158.71289 C 244.91054 155.05702 240.05575 153.22852 233.82617 153.22852 z M 49.753906 154.16211 L 49.753906 193.98828 L 56.445312 193.98828 L 56.445312 154.16211 L 49.753906 154.16211 z M 87.947266 158.5957 C 92.272606 158.5957 95.592008 159.9441 97.904297 162.64062 C 100.24379 165.33715 101.41406 169.17414 101.41406 174.15234 C 101.41406 179.07869 100.24379 182.87823 97.904297 185.54883 C 95.592008 188.21943 92.272606 189.55469 87.947266 189.55469 C 83.703536 189.55469 80.317025 188.19316 77.787109 185.4707 C 75.257194 182.74825 73.992188 179.02751 73.992188 174.30859 C 73.992188 169.40818 75.243381 165.57119 77.746094 162.79688 C 80.248806 159.99664 83.649129 158.5957 87.947266 158.5957 z M 185.87891 158.5957 C 189.55136 158.5957 192.46226 159.85411 194.61133 162.36914 C 196.7604 164.88417 197.83594 168.3573 197.83594 172.79102 C 197.83594 178.05443 196.67948 182.16529 194.36719 185.12109 C 192.0821 188.0769 188.91268 189.55469 184.85938 189.55469 C 181.40454 189.55469 178.5489 188.41254 176.29102 186.13086 C 174.06034 183.82326 172.94531 181.02334 172.94531 177.73047 L 172.94531 172.16992 C 172.94531 168.2807 174.12745 165.05126 176.49414 162.48438 C 178.86084 159.89156 181.98882 158.5957 185.87891 158.5957 z M 233.33594 158.5957 C 237.66128 158.5957 240.98068 159.9441 243.29297 162.64062 C 245.63246 165.33715 246.80273 169.17414 246.80273 174.15234 C 246.80273 179.07869 245.63246 182.87823 243.29297 185.54883 C 240.98068 188.21943 237.66128 189.55469 233.33594 189.55469 C 229.09221 189.55469 225.7057 188.19316 223.17578 185.4707 C 220.64587 182.74825 219.38086 179.02751 219.38086 174.30859 C 219.38086 169.40818 220.63205 165.57119 223.13477 162.79688 C 225.63748 159.99664 229.0378 158.5957 233.33594 158.5957 z "
       transform="scale(0.26458333)" />
  </g>
</svg>
